<svg width="76" height="74" viewBox="0 0 76 74" fill="none" xmlns="http://www.w3.org/2000/svg">
<g clip-path="url(#clip0_89_39)">
<path d="M40.5265 23.0874L41.3787 23.0833L41.3633 25.0362C39.6382 24.9225 37.5923 25.0462 35.8131 24.996C35.8511 25.6808 35.8339 26.4804 35.8354 27.174C37.2199 27.1021 39.5936 27.1165 40.9848 27.1676C40.9791 27.8205 40.9481 28.3876 40.9022 29.0397C39.3293 28.9544 37.1205 29.1017 35.8214 28.9862C35.8419 29.8341 35.8461 30.6823 35.8341 31.5303C37.5408 31.4845 39.8022 31.4894 41.5025 31.5561C41.6845 30.8341 42.3781 29.0843 42.6641 28.3087C43.261 26.6902 43.8742 24.6848 44.549 23.1202C45.3762 23.0706 46.2363 23.0607 47.0602 23.1477C47.4142 24.0133 47.7493 24.8864 48.0653 25.7664C48.6026 27.507 49.3633 29.2573 49.9445 30.9921C50.2254 31.8309 50.5663 32.7676 50.9105 33.5781C50.312 33.5196 49.1797 33.5688 48.5008 33.5454C48.2777 33.0203 47.9796 32.0331 47.789 31.4529C46.5082 31.4285 45.0656 31.5142 43.8058 31.4187L43.1711 33.5419C40.0492 33.5966 36.7453 33.4457 33.6466 33.5854L33.6312 23.1259C35.9035 23.0724 38.2402 23.1123 40.5265 23.0874ZM44.4403 29.6489C44.9785 29.5851 45.5345 29.596 46.0777 29.5951C46.5215 29.5876 46.7803 29.5847 47.2269 29.6353C46.9529 29.0084 45.9711 25.6919 45.8116 25.5491C45.3261 26.5001 44.8466 28.5667 44.4403 29.6489Z" fill="#016733"/>
<path d="M30.3399 23.1241C31.1081 23.0926 31.8769 23.0747 32.6459 23.0704C32.606 23.9273 32.6389 25.032 32.6413 25.9072C32.6339 27.1068 32.7605 30.3076 32.4964 31.3194C32.3809 31.7675 32.1647 32.1836 31.8641 32.5369C30.4211 34.227 26.9737 34.3274 25.3447 32.8968C24.9484 32.5513 24.6525 32.1068 24.4876 31.6095C23.9011 29.8576 24.2978 25.2292 24.147 23.0967C24.4826 23.1105 24.8441 23.0954 25.1818 23.0879C25.5672 23.0643 26.1039 23.0884 26.5038 23.0959C26.4655 25.1924 26.5154 27.3053 26.4937 29.4032C26.5025 30.0475 26.5201 30.9966 27.0256 31.4521C27.7903 32.1412 29.3904 32.1422 30.0058 31.255C30.1255 31.0865 30.349 30.7133 30.3602 30.5063C30.4055 29.6633 30.4138 28.7448 30.3902 27.8994C30.3467 26.3303 30.4448 24.6828 30.3399 23.1241Z" fill="#016733"/>
<path d="M27.435 48.9258C28.4962 48.9036 29.559 48.8784 30.6192 48.8258C37.0087 48.5087 43.4189 48.7784 49.8146 48.6833C50.0832 48.6793 50.6825 48.7832 50.9218 48.8901L50.9036 49.0058L50.9038 48.8894L50.8522 49.0204C49.924 49.1826 48.7463 49.1395 47.7878 49.1406L43.5171 49.1411C39.0023 49.1426 34.4993 49.0208 29.9851 49.0725C29.117 49.0824 28.2454 49.0939 27.3775 49.0809L27.435 48.9258Z" fill="#016733"/>
<path d="M27.4268 40.9378C29.0854 40.6223 29.4659 42.0118 28.8551 43.2817C27.2252 44.718 25.5476 41.9762 27.4268 40.9378ZM28.6513 42.7509C28.6701 42.6524 28.6855 42.5533 28.6976 42.4537C28.7979 41.6119 28.4734 41.2475 27.6418 41.2038C27.2777 41.4554 27.1287 41.6013 27.0446 42.0566C26.9886 42.3518 27.0533 42.6569 27.2244 42.9046C27.6243 43.472 28.4289 43.454 28.6513 42.7509Z" fill="#026023"/>
<path d="M50.5466 43.2792C49.017 44.3582 47.7247 42.816 48.5521 41.3688C48.7941 40.9456 49.2874 40.9044 49.7402 40.824C50.7811 41.2413 51.1077 42.0162 50.6484 43.0564C50.6156 43.1312 50.5816 43.2054 50.5466 43.2792ZM50.0314 43.2044C50.6826 42.5218 50.51 41.6765 49.7392 41.1803C48.076 41.4023 48.4326 43.6221 50.0314 43.2044Z" fill="#016733"/>
<path d="M49.7402 40.824C50.7811 41.2413 51.1077 42.0162 50.6484 43.0564C50.6156 43.1312 50.5816 43.2054 50.5465 43.2792L50.0314 43.2044C50.6826 42.5218 50.51 41.6765 49.7392 41.1803L49.7402 40.824Z" fill="#026023"/>
<path d="M39.0168 45.1662C39.157 45.1768 39.392 45.1867 39.5218 45.2105C40.5912 45.697 40.6741 46.5493 40.2237 47.5689C39.5498 48.0361 38.8237 48.2315 38.2065 47.5468C38.1709 47.4737 38.1376 47.3995 38.1066 47.3242C37.7063 46.3403 38.0297 45.5393 39.0168 45.1662ZM38.6367 47.4714C39.1476 47.5757 39.4931 47.7883 39.9256 47.2906C40.1953 46.5357 40.1394 45.9415 39.4095 45.5375L38.9231 45.5471C38.2707 46.0498 38.2078 46.7859 38.6367 47.4714Z" fill="#016733"/>
<path d="M39.5218 45.2105C40.5912 45.697 40.6741 46.5493 40.2237 47.5689C40.088 47.4655 40.0428 47.4158 39.9256 47.2906C40.1953 46.5357 40.1394 45.9415 39.4095 45.5375L39.5218 45.2105Z" fill="#026023"/>
<path d="M42.0334 42.837C41.7739 42.146 41.9713 41.1077 42.7975 40.9541C43.4448 40.8338 43.5433 40.89 44.0956 41.1799C44.5431 41.8252 44.5387 42.6785 44.1322 43.3457C43.9933 43.4189 43.8494 43.4822 43.7015 43.5352C42.9155 43.8157 42.3208 43.6243 42.0334 42.837ZM43.673 43.1935C43.696 43.167 43.7184 43.1401 43.7403 43.1126C44.1137 42.6391 44.0547 42.3495 43.9835 41.7842C43.0417 40.3799 41.8904 41.7792 42.557 43.0741C43.3658 43.4427 43.0342 43.2397 43.673 43.1935Z" fill="#026023"/>
<path d="M42.0334 42.837L42.3998 43.1802L42.4964 43.1757L42.557 43.0741C43.3658 43.4427 43.0342 43.2397 43.673 43.1935C43.8104 43.2401 43.9969 43.3102 44.1322 43.3457C43.9933 43.4188 43.8494 43.4822 43.7015 43.5352C42.9155 43.8157 42.3208 43.6243 42.0334 42.837Z" fill="#016733"/>
<path d="M41.2114 36.6339C41.7838 36.6287 42.3878 36.5638 42.8992 36.861C43.7507 37.3557 43.4534 38.3246 43.0441 39.0112C42.4361 39.3103 41.8554 39.2884 41.1968 39.2899C41.2359 38.417 41.1639 37.5244 41.2114 36.6339ZM41.6435 38.9228C41.9429 38.8945 42.5193 38.8598 42.7832 38.7709C42.8906 38.4832 42.9787 38.2566 43.0505 37.9587C42.806 36.9835 42.7685 37.0249 41.7613 36.958C41.5132 37.2498 41.645 38.4283 41.6435 38.9228Z" fill="#016733"/>
<path d="M39.5186 40.9246C40.3084 40.8907 40.5539 40.9537 41.3002 41.1375C41.7664 42.0224 41.7073 42.4388 41.3127 43.3255C40.7629 43.5975 40.087 43.5425 39.4806 43.5326C39.4572 42.9915 39.3483 41.3362 39.5186 40.9246ZM39.8649 43.2397C40.1177 43.2159 40.807 43.1666 41.0118 43.1139C41.6272 41.7504 41.1368 41.3289 39.8287 41.2921C39.8432 41.8462 39.9031 42.7262 39.8649 43.2397Z" fill="#016733"/>
<path d="M45.8217 41.0047C46.3676 40.7533 47.2704 40.9649 47.7897 41.2213C47.9966 41.8927 48.1186 42.2493 47.8423 42.9557C47.5963 43.5844 46.281 43.7751 45.8988 43.3867L45.8822 43.1988C45.8241 42.6672 45.8332 41.582 45.8217 41.0047ZM46.285 43.2676C46.5447 43.2289 47.1775 43.1515 47.3951 43.071C47.6238 42.5585 47.7255 42.2923 47.5108 41.7461C47.4627 41.6251 47.4118 41.5051 47.3583 41.3862C47.0082 41.3406 46.6443 41.2869 46.2932 41.2612C46.2812 41.9075 46.3172 42.6488 46.285 43.2676Z" fill="#026023"/>
<path d="M45.8217 41.0047C46.1447 41.3165 46.1816 41.2971 46.224 41.7694C46.274 42.326 46.0718 42.7005 45.8822 43.1988C45.8241 42.6672 45.8332 41.582 45.8217 41.0047Z" fill="#016733"/>
<path d="M46.3006 36.6022C48.251 36.5749 48.7949 37.1069 48.1162 38.9697C47.739 39.1446 46.7826 39.4632 46.4094 39.2503L46.3607 39.0975C46.2508 38.5673 46.2947 37.1988 46.3006 36.6022ZM46.6382 38.8184C46.9225 38.9573 47.0979 38.8378 47.3621 38.8804C47.5622 38.8326 47.5991 38.814 47.7802 38.7154C47.9703 38.4947 48.02 38.1316 48.0871 37.8396L47.7231 37.042C47.4165 37.0035 46.9122 36.9847 46.5899 36.9636C46.593 37.484 46.5744 38.3282 46.6382 38.8184Z" fill="#026023"/>
<path d="M46.3607 39.0975C46.3718 38.9438 46.3644 38.9199 46.4421 38.7921L46.6382 38.8184C46.9225 38.9573 47.0979 38.8378 47.3621 38.8804C47.7013 38.97 47.7683 38.9841 48.1162 38.9697C47.739 39.1446 46.7826 39.4632 46.4094 39.2503L46.3607 39.0975Z" fill="#016733"/>
<path d="M31.8424 35.5432C31.3855 35.5994 29.6077 35.5937 29.097 35.5675C28.2267 35.5227 24.4483 35.9278 24.0903 35.4191C24.1071 35.3436 24.0927 35.3408 24.136 35.2994C24.2456 35.1945 24.386 35.127 24.5368 35.1065C24.8195 35.0656 26.8909 35.1197 27.299 35.1101C30.2334 35.0409 33.146 35.2045 36.0663 35.2679C36.0154 35.3117 35.9519 35.3662 35.8759 35.4314C35.1071 35.5476 32.3819 35.3615 31.8424 35.5432Z" fill="#016733"/>
<path d="M36.0663 35.2679C40.1657 35.2705 44.4963 35.2118 48.5813 35.3431C48.834 35.4143 48.9152 35.4419 49.1808 35.4558C48.7171 35.464 47.6559 35.467 47.2401 35.547C42.1076 35.5933 36.9749 35.592 31.8424 35.5432C32.3819 35.3615 35.1071 35.5476 35.8759 35.4314C35.9519 35.3661 36.0154 35.3117 36.0663 35.2679Z" fill="#026023" fill-opacity="0.988235"/>
<path d="M28.6594 47.5292C28.8758 46.9719 29.3369 45.499 29.7011 45.1539L29.8232 45.1499C30.0755 45.5297 29.9961 46.5336 29.9814 47.0187C29.9972 47.3014 30.0464 47.6099 29.9126 47.8531L29.8169 47.8963C29.6843 47.7569 29.6381 47.4183 29.6492 47.2314L29.6112 46.0311C29.4651 46.4209 29.087 47.724 28.7049 47.8359C28.3528 47.6269 28.175 46.753 28.0577 46.3421L27.923 46.2039C27.7425 46.4219 28.0676 47.511 27.769 47.8737L27.6238 47.8689C27.4589 47.4901 27.3272 45.3269 27.7923 45.1702C28.1234 45.4095 28.2313 45.8014 28.3823 46.1786C28.5427 46.7056 28.583 46.9805 28.6594 47.5292Z" fill="#016733"/>
<path d="M29.6492 47.2314C29.6913 47.0035 29.7335 46.6849 29.8341 46.4867C29.9147 46.6701 29.9402 46.8252 29.9814 47.0187C29.9972 47.3014 30.0464 47.6099 29.9126 47.8531L29.8169 47.8963C29.6843 47.7569 29.6381 47.4183 29.6492 47.2314Z" fill="#026023"/>
<path d="M35.5435 36.6063C36.4351 36.5757 37.6746 36.6295 37.0638 37.8949C37.1104 38.3207 37.4284 39.204 37.1042 39.3632L36.9961 39.2837C36.8266 38.9442 36.8167 38.7582 36.7667 38.3895C36.6746 38.0791 35.9596 38.1437 35.6578 38.1349C35.6744 38.5958 35.7224 38.8793 35.5586 39.3034L35.4756 39.3113C35.1695 38.7344 35.2305 37.421 35.3074 36.7684C35.3186 36.6735 35.4603 36.6429 35.5435 36.6063ZM35.676 37.9112C36.0239 37.8809 36.3561 37.8733 36.6767 37.7352C36.7972 37.5439 36.8577 37.4807 36.83 37.251C36.5762 36.9205 36.0388 36.9526 35.6409 36.9813L35.676 37.9112Z" fill="#026023"/>
<path d="M28.5352 38.6425C28.5424 38.0867 28.5323 37.3342 28.5668 36.7703C28.5742 36.6492 28.7204 36.5939 28.8128 36.5545L28.9094 36.622C29.0665 37.0265 28.9804 38.4499 28.9785 38.9593C28.9775 39.2374 28.9329 39.2612 28.7673 39.4098C28.2427 39.0295 27.4524 37.6242 27.0834 37.0257C27.1747 37.5067 27.4297 39.0181 27.0465 39.3576L26.9407 39.2783C26.7368 38.6693 26.8349 37.1752 26.8917 36.5108C27.4819 36.6633 28.2321 38.1184 28.5352 38.6425Z" fill="#016733"/>
<path d="M44.6469 36.5149C45.0831 36.7251 45.9763 38.8687 45.7932 39.291L45.6535 39.3098C45.3253 39.0802 45.5272 38.5992 44.9994 38.4588C44.7831 38.4501 44.5821 38.4491 44.3662 38.4494C44.0051 38.7339 44.2214 39.1375 43.7512 39.3281L43.6364 39.2454C43.5713 38.8832 44.4481 36.9249 44.6469 36.5149ZM44.882 38.1768L45.0199 38.1604C45.0665 37.9434 44.8675 37.3451 44.7163 37.1978C44.6119 37.4332 44.3846 37.8508 44.4292 38.0807L44.5305 38.1862L44.882 38.1768Z" fill="#026023"/>
<path d="M32.4295 44.967C32.8804 45.8168 33.5048 47.4009 33.7145 48.369C33.1165 47.7026 33.0591 47.1405 32.3731 47.1006C32.2782 47.0954 32.1833 47.0917 32.0883 47.0894C31.7199 47.3231 31.8072 47.8943 31.3757 47.8881C31.2879 47.5185 31.8357 46.3001 32.0061 45.8816C32.1426 45.5854 32.2854 45.256 32.4295 44.967ZM32.1257 46.8734C32.3462 46.8672 32.4981 46.8799 32.7008 46.7931C32.7829 46.5845 32.6182 46.1357 32.5239 45.9271L32.4166 45.9601C32.2567 46.2312 32.0839 46.5461 32.1257 46.8734Z" fill="#026023"/>
<path d="M32.0061 45.8816L32.4166 45.9601C32.2567 46.2312 32.0839 46.5461 32.1257 46.8734L32.0883 47.0894C31.7199 47.3231 31.8072 47.8943 31.3757 47.8881C31.2879 47.5185 31.8357 46.3001 32.0061 45.8816Z" fill="#026023"/>
<path d="M46.4725 45.0158C46.9238 46 47.4715 47.2833 47.6771 48.3415C47.094 47.7141 47.0808 47.1379 46.4601 47.1131C46.2998 47.1072 46.1395 47.1041 45.9791 47.1036C45.7889 47.4059 45.8241 47.7293 45.4294 47.883C45.2952 47.5582 45.841 46.2741 45.9862 45.8788C46.1543 45.5432 46.263 45.335 46.4725 45.0158ZM46.0797 46.8888C46.4367 46.8521 46.5277 46.9012 46.7189 46.6688C46.7558 46.3343 46.6667 46.2539 46.4982 45.9366L46.3906 45.9333C46.2572 46.2241 46.0687 46.5719 46.0797 46.8888Z" fill="#026023"/>
<path d="M45.9862 45.8788L46.3906 45.9333C46.2572 46.2241 46.0687 46.5719 46.0797 46.8888C46.0541 46.998 46.0601 47.0267 45.9791 47.1036C45.7889 47.4059 45.8241 47.7293 45.4294 47.883C45.2952 47.5582 45.841 46.2741 45.9862 45.8788Z" fill="#026023"/>
<path d="M25.0571 45.1281C25.3942 45.2648 26.2525 47.6152 26.1423 47.8766L25.989 47.8779C25.7828 47.7534 25.6899 47.4351 25.5937 47.2016C25.3627 47.048 25.2958 47.1131 24.9513 47.1298C24.302 46.991 24.5186 47.5681 24.1561 47.9055L24.0014 47.8771C23.8956 47.4737 24.7499 45.4997 25.0571 45.1281ZM25.2127 46.9214C25.4213 46.592 25.3956 46.2206 25.0965 45.9463L24.9966 45.9076C24.9234 46.2665 24.7686 46.5612 24.8371 46.8253C24.9936 46.8801 25.049 46.8959 25.2127 46.9214Z" fill="#026023"/>
<path d="M37.9399 40.8559C38.4757 40.9562 39.1945 43.2218 39.1034 43.5416L38.9757 43.6026C38.6759 43.4 38.728 43.0461 38.4252 42.7997C38.1715 42.796 37.918 42.7893 37.6645 42.7796C37.4044 42.9541 37.489 43.1771 37.2147 43.5791L37.0863 43.5968L36.9966 43.4644C36.9665 43.0998 37.7481 41.2451 37.9399 40.8559ZM38.1907 42.5271L38.3228 42.5033C38.3751 42.2799 38.1553 41.5933 37.9928 41.4472C37.8827 41.7369 37.6801 42.1796 37.7675 42.4612C37.9419 42.5795 37.9467 42.538 38.1907 42.5271Z" fill="#026023"/>
<path d="M38.6517 36.4974C39.0856 36.5608 39.6915 36.8963 39.7192 37.3733C39.5943 37.5083 39.641 37.5008 39.4989 37.5166L39.3988 37.4067C39.0179 36.9915 38.7254 36.5452 38.1331 37.1807C38.0825 37.2352 38.1099 37.2934 38.117 37.3759C38.5454 37.8113 40.2331 37.8429 39.6623 38.8763C39.4955 39.1783 39.0869 39.2472 38.7744 39.3163C38.26 39.3116 37.7504 39.1048 37.5926 38.5631C37.6484 38.358 37.5978 38.428 37.792 38.3066C38.1053 38.4469 38.1254 38.6818 38.4617 38.9827C38.8155 39.0961 39.1784 38.9015 39.357 38.5966C39.188 37.959 37.99 38.0932 37.7055 37.4672C37.4843 36.9807 38.2589 36.5887 38.6517 36.4974Z" fill="#026023"/>
<path d="M33.4214 40.9122C33.9188 40.8807 34.4111 40.8831 34.7199 41.339C34.7726 41.5588 34.757 41.5883 34.6636 41.7968C34.3709 41.7473 34.0581 41.1608 33.6922 41.1633C33.3601 41.1655 33.207 41.4383 33.2382 41.7336C33.6352 42.1688 35.2193 42.0098 34.7455 43.1533C34.6229 43.4491 34.4559 43.4991 34.1766 43.6048C33.5366 43.6721 32.842 43.6045 32.7497 42.8211L32.8643 42.7427C33.1221 42.772 34.0084 43.8725 34.4163 42.9523C34.2653 42.3931 31.4675 41.7886 33.4214 40.9122Z" fill="#026023"/>
<path d="M26.0061 36.4536C26.0864 36.4953 26.1951 36.5595 26.188 36.6645C26.1242 37.6035 26.689 39.2478 25.2799 39.3152C23.8857 39.3819 24.1702 37.9775 24.1867 37.0542C24.1826 36.8216 24.167 36.7463 24.2995 36.5458L24.4012 36.569C24.7146 37.1262 24.4439 37.8723 24.5736 38.4977C24.6582 38.9051 25.2583 39.0728 25.5033 38.8698C26.1323 38.3488 25.7757 37.2197 26.0061 36.4536Z" fill="#016733"/>
<path d="M30.3682 36.5251C31.219 36.9071 30.9786 38.1194 31.3322 38.5903L31.4331 38.5901C31.7719 38.0934 31.9046 36.6318 32.4254 36.5898L32.5007 36.7183L32.439 36.9465C32.1705 37.6119 32.022 38.379 31.698 39.0154C31.604 39.2003 31.4991 39.1958 31.3276 39.1756C30.9653 38.8701 30.3001 36.9726 30.3682 36.5251Z" fill="#026023"/>
<path d="M50.2933 47.5403C50.4657 47.3752 50.443 47.2619 50.3956 47.0647C50.1227 46.7413 49.4961 46.7283 49.254 46.5571C48.1925 45.8063 49.2884 44.7853 50.5016 45.4112C50.6692 45.6683 50.7708 45.8233 50.689 46.1417L50.5847 46.1743C50.4242 46.069 50.4082 46.0503 50.3016 45.8908C50.1634 45.7037 50.0962 45.5753 49.8681 45.5135C49.6513 45.5258 49.2338 45.7074 49.1526 45.9054C49.5475 46.6027 51.0737 46.1022 50.7387 47.5701L50.7305 47.6048L50.2933 47.5403Z" fill="#026023"/>
<path d="M50.5016 45.4112C50.6692 45.6683 50.7708 45.8233 50.689 46.1417L50.5847 46.1743C50.4242 46.069 50.4082 46.0503 50.3016 45.8908C50.3149 45.7837 50.4494 45.5229 50.5016 45.4112Z" fill="#026023"/>
<path d="M36.372 45.5797C36.0228 45.5921 34.8938 45.723 34.736 45.4013C35.0351 45.1593 36.4321 45.2205 36.8874 45.2159C36.3296 46.3458 35.7791 46.6829 35.2568 47.5617C35.1103 47.7088 35.0683 47.7401 34.8926 47.8518C34.7691 47.8857 34.8316 47.8883 34.7023 47.819C34.7193 47.3215 35.9742 46.0222 36.372 45.5797Z" fill="#016733"/>
<path d="M48.9324 36.5992C49.7484 36.5895 49.9912 36.5564 50.7769 36.7917L50.8555 36.8818C50.3089 37.0968 49.627 36.8352 49.2749 37.2296C49.2714 37.5173 49.2667 37.4269 49.4145 37.6967C49.8686 37.7686 50.2669 37.6141 50.6308 37.7517L50.6878 37.8621C50.5746 38.096 50.6449 38.0294 50.4352 38.1348C50.0514 38.0993 49.7965 37.967 49.4874 38.0845C49.3029 38.2819 49.348 38.3599 49.3342 38.678L49.2471 38.7317C48.8994 38.2259 49.13 37.8505 48.9406 37.5979C48.9348 37.2807 48.9185 36.9119 48.9324 36.5992Z" fill="#016733"/>
<path d="M34.92 40.923C35.3381 40.9237 36.7898 40.8468 37.027 41.0775L37.0127 41.2395C36.7131 41.4394 36.7124 41.2363 36.2998 41.372C36.2299 41.5767 36.2546 42.4202 36.2554 42.6909C36.2685 43.0303 36.3487 43.3898 36.0424 43.6001C35.7763 43.334 35.8169 41.748 35.8099 41.3313C35.5529 41.3435 35.3428 41.3664 35.0906 41.3117C34.9133 41.1474 34.9655 41.2025 34.92 40.923Z" fill="#026023"/>
<path d="M32.9482 36.5841C33.4756 36.5806 34.3617 36.565 34.8545 36.7568L34.9021 36.8536C34.414 37.2886 33.2204 36.6165 33.1042 37.3903C33.3974 37.9018 34.3523 37.5747 34.69 37.8525C34.5474 38.3615 33.583 37.8775 33.2815 38.1176C33.2542 38.3407 33.2301 38.5237 33.1866 38.7454L33.0733 38.7329C33.0737 38.4109 33.0831 38.3337 32.9178 38.0633C32.9089 37.5261 32.9111 37.1192 32.9482 36.5841Z" fill="#016733"/>
<path d="M24.2294 40.977L24.2534 41.1895C24.6025 41.1659 24.5303 41.0799 24.7883 41.1986C24.4866 41.5645 24.5958 42.6237 24.5725 43.2161C25.1899 43.1952 25.5925 43.28 25.9257 42.6746L26.2794 42.7925C25.8488 43.7945 25.1445 43.4637 24.1915 43.5647C24.1831 43.1135 24.1208 41.2949 24.2294 40.977Z" fill="#016733"/>
<path d="M43.6536 47.4483C43.6635 47.0576 43.6249 45.4972 43.7935 45.2613C44.0566 45.6111 44.1493 47.5334 43.7981 47.8875C43.3217 47.7892 42.5976 46.4632 42.4769 46.0231C42.4999 45.9485 42.5293 45.7472 42.5446 45.66C43.1342 46.2936 43.2428 46.7858 43.6536 47.4483Z" fill="#026023"/>
<path d="M40.2948 36.4722C40.4059 36.5336 40.5408 36.6166 40.5718 36.7343C40.6878 37.1735 40.6952 39.0476 40.5242 39.3866C40.4583 39.3684 40.2595 39.2997 40.2489 39.2305C40.1736 38.7337 40.0703 36.8733 40.2948 36.4722Z" fill="#026023"/>
<path d="M29.6201 36.5054C29.8114 36.557 29.7514 36.5159 29.8883 36.6476C30.0934 37.1747 30.016 38.773 29.9407 39.3687C29.8314 39.3441 29.7614 39.3144 29.6573 39.2764C29.4596 38.917 29.5195 36.9565 29.6201 36.5054Z" fill="#016733"/>
<path d="M42.4769 46.0231L42.3711 46.0438C42.0289 46.3772 42.3953 47.6088 42.1478 47.9936L42.0409 47.9553C41.8539 47.5738 41.8326 45.4732 42.0973 45.1407C42.2978 45.2121 42.4062 45.4553 42.5446 45.66C42.5293 45.7472 42.4999 45.9485 42.4769 46.0231Z" fill="#026023"/>
<path d="M48.9407 37.5979C49.13 37.8505 48.8994 38.2259 49.2471 38.7317L49.3342 38.678L49.3654 38.7995C49.817 39.0512 50.4656 38.5845 50.9044 39.0738L50.8492 39.1786C50.6063 39.3088 49.4071 39.2813 48.9585 39.3203C48.9236 38.7046 48.926 38.2159 48.9407 37.5979Z" fill="#026023"/>
<path d="M32.9178 38.0633C33.0831 38.3337 33.0737 38.4109 33.0733 38.7329L33.1866 38.7454C33.5424 39.1276 34.7703 38.5545 34.8326 39.119C34.5805 39.3413 33.4245 39.2822 32.9301 39.3191C32.9174 38.9054 32.9205 38.4783 32.9178 38.0633Z" fill="#026023"/>
<path d="M30.5775 40.9828C30.9562 41.3426 31.0634 41.1195 31.1636 41.2993C30.8673 41.5533 30.9487 41.6759 30.9986 42.0566L30.9673 42.307C30.9689 42.4936 30.9822 42.8897 30.9617 43.0567L30.5694 42.8946C30.6154 42.4417 30.5812 41.4739 30.5775 40.9828Z" fill="#016733"/>
<path d="M50.7305 47.6048C50.0673 48.2106 48.8925 48.128 48.8086 47.197L48.8867 47.1399C49.5488 47.2129 49.124 47.7213 50.2933 47.5403L50.7305 47.6048Z" fill="#016733"/>
<path d="M30.5694 42.8946L30.9617 43.0567C31.3715 43.3587 32.2265 42.9265 32.5049 43.3649L32.4347 43.445C31.8928 43.5469 31.2422 43.5359 30.6935 43.4829C30.5591 43.3305 30.5814 43.1128 30.5694 42.8946Z" fill="#026023"/>
<path d="M24.2294 40.977C24.8034 40.755 25.7508 40.9492 26.1867 41.4033C26.0751 41.5197 25.9909 41.6297 25.8454 41.6944C25.5949 41.3175 25.2439 41.3215 24.7883 41.1986C24.5303 41.0799 24.6025 41.1659 24.2534 41.1895L24.2294 40.977Z" fill="#026023"/>
<path d="M30.5775 40.9828C31.0041 40.8219 32.0254 40.8667 32.4329 41.1282L32.4536 41.2375C32.1493 41.4021 31.5155 41.3417 31.1636 41.2993C31.0634 41.1195 30.9562 41.3426 30.5775 40.9828Z" fill="#016733"/>
<path d="M35.2568 47.5617C35.7065 47.5264 36.2705 47.4429 36.6733 47.6513C36.4113 47.9915 35.2927 47.8742 34.8926 47.8518C35.0682 47.7401 35.1102 47.7088 35.2568 47.5617Z" fill="#016733"/>
<path d="M24.7584 48.913C25.6468 48.9042 26.5484 48.8839 27.435 48.9258L27.3775 49.0809C26.5488 49.1171 25.655 49.1034 24.8211 49.1058L24.7584 48.913Z" fill="#026023"/>
<path d="M26.1867 41.4033C26.339 41.9378 26.4241 42.23 26.2794 42.7925L25.9257 42.6746C25.9371 42.1806 25.9945 42.2043 25.8454 41.6944C25.9909 41.6297 26.0751 41.5197 26.1867 41.4033Z" fill="#026023"/>
<path d="M30.9986 42.0566C31.371 42.0129 31.7992 41.9381 32.1394 42.0946L32.2 42.2151C31.9222 42.4737 31.3131 42.4031 30.9673 42.307L30.9986 42.0566Z" fill="#026023"/>
<path d="M48.5813 35.3431C49.1786 35.3114 49.4906 35.324 50.0914 35.4248C49.1239 35.5832 48.2177 35.5672 47.2401 35.547C47.6559 35.467 48.7171 35.464 49.1808 35.4558C48.9152 35.4419 48.834 35.4143 48.5813 35.3431Z" fill="#0D4E2F" fill-opacity="0.588235"/>
<path d="M24.8211 49.1058C24.6004 49.1032 24.4585 49.1291 24.2942 48.9946C24.4683 48.8793 24.5189 48.9184 24.7584 48.913L24.8211 49.1058Z" fill="#0D4E2F" fill-opacity="0.705882"/>
<path d="M1.50602 26.5707C2.65563 24.2015 4.16198 22.5662 6.68907 21.6282C10.8562 20.0515 15.5631 22.9482 16.9424 26.9437C17.4231 28.2537 17.4561 29.5803 17.61 30.9366C18.1491 35.6867 17.312 40.3911 16.9976 45.1223C16.858 47.2236 16.9047 49.4358 16.9047 51.545C17.915 52.123 18.7933 52.9894 19.7202 53.6913C23.2465 56.3611 32.5697 63.458 34.1129 67.291C34.5923 68.4819 34.6091 69.7792 34.0878 70.9598C33.6796 71.8842 32.9151 72.757 31.9565 73.1263C31.561 73.2788 31.1464 73.3402 30.7232 73.3279C29.9938 73.3063 29.2711 73.1054 28.5609 72.9521C26.5362 72.5149 24.5743 72.0514 22.6705 71.2136C19.0589 69.624 15.6695 67.1902 12.765 64.552C7.11011 59.4156 3.65507 54.5501 1.53547 47.179C1.08956 45.6282 0.689393 43.9955 0.44027 42.4023C0.315297 41.603 0.272498 39.4984 0.0204934 38.891C0.0139092 38.8751 0.00683115 38.8595 0 38.8437V34.7775C0.15312 34.4982 0.314499 31.997 0.428169 31.4153C0.705165 29.9976 0.960963 27.8754 1.50602 26.5707Z" fill="#016733"/>
<path d="M1.50602 26.5707C2.65563 24.2015 4.16198 22.5662 6.68907 21.6282C10.8562 20.0515 15.5631 22.9482 16.9424 26.9437C17.4231 28.2537 17.4561 29.5803 17.61 30.9366C18.1491 35.6867 17.312 40.3911 16.9976 45.1223C16.858 47.2236 16.9047 49.4358 16.9047 51.545C16.7625 51.5317 12.9761 49.1042 12.6398 48.8151C7.06198 44.0205 2.00469 37.2634 1.61284 29.7121C1.56109 28.7147 1.64092 27.5727 1.50602 26.5707Z" fill="#38AA35"/>
<path d="M61.5068 47.932C61.756 46.939 61.8061 45.6032 61.9631 44.554C62.2441 42.6757 62.5797 40.7122 62.7901 38.835C63.1959 35.2148 63.4036 31.8525 64.7768 28.4186C65.1309 27.3448 65.6502 26.3693 66.2185 25.4114C67.4031 23.4146 70.4925 22.6527 72.4327 24.051C75.2946 26.1135 75.3892 32.0901 76 35.2296V41.0214C75.8711 41.6927 75.7772 42.3455 75.6972 43.0246C75.521 44.5179 75.181 46.0404 74.7828 47.4903C72.4592 55.937 67.1518 63.2718 59.8303 68.1549C57.0754 70.0149 51.6293 73.0988 48.3763 73.583C47.8879 73.6828 46.9215 73.8533 46.4826 74H45.5859C45.284 73.8988 44.4893 73.75 44.1573 73.6791C40.2868 72.8539 37.7729 69.8853 37.8404 65.9018C37.8903 62.9606 39.7602 60.8146 42.0381 59.1153C43.067 58.3478 44.0913 57.6236 45.2918 57.1111C46.6582 56.4838 48.372 56.0934 49.6398 55.423C53.0623 53.6134 58.7052 50.5936 61.5068 47.932Z" fill="#016733"/>
<path d="M61.5068 47.932C61.7851 49.0438 61.1508 52.7448 60.8374 53.9709C59.8307 57.8666 58.9117 62.284 56.8714 65.7973C55.1735 68.7211 52.0713 71.3857 49.1226 73.0179C48.7678 73.2137 48.6513 73.2846 48.3763 73.583C47.8879 73.6828 46.9215 73.8533 46.4826 74H45.5859C45.284 73.8988 44.4893 73.75 44.1573 73.6791C40.2868 72.8539 37.7729 69.8853 37.8404 65.9018C37.8903 62.9606 39.7602 60.8146 42.0381 59.1153C43.067 58.3478 44.0913 57.6236 45.2918 57.1111C46.6582 56.4838 48.372 56.0934 49.6398 55.423C53.0623 53.6134 58.7052 50.5936 61.5068 47.932Z" fill="#38AA35"/>
<path d="M34.7629 0H40.5178C40.8994 0.177971 41.7469 0.206874 42.2137 0.258539C49.1555 1.02674 57.4767 4.17968 62.6932 8.87899C63.3992 9.44924 64.1747 10.0073 64.8027 10.6609C66.364 12.2858 67.4619 14.5597 67.5763 16.8156C67.6691 18.6463 66.9756 20.7813 65.8055 22.1964C64.7227 23.5216 63.1524 24.3633 61.4423 24.5353C60.4077 24.6317 58.9611 24.4006 57.9646 24.1273C55.9593 23.5772 54.4909 21.6581 52.8927 20.3305C49.3034 17.3041 45.1517 15.005 40.672 13.5632C39.6954 13.244 38.7065 12.9631 37.7076 12.7211C36.7442 12.4946 35.7771 12.3375 34.8592 11.978C32.9488 12.812 31.1403 13.6103 29.2386 14.502C27.5695 15.2846 25.1283 16.5969 23.4353 17.1714C20.2531 18.2513 13.9001 20.479 10.735 19.0935C9.61677 18.6283 8.54854 17.6551 8.12079 16.5214C7.30619 14.3626 9.95389 11.7214 11.4355 10.3623C17.7985 4.52556 26.0593 0.716818 34.7145 0.0198454C34.7307 0.0132302 34.7468 0.00661513 34.7629 0Z" fill="#016733"/>
<path d="M34.8592 11.978C35.4096 11.5921 37.2905 10.8922 37.9683 10.6418C43.0902 8.70902 48.5165 7.69224 53.9956 7.63862C55.337 7.6327 56.5564 7.659 57.8816 7.83518C59.4438 8.04288 60.8175 8.38419 62.3011 8.89156C62.3939 8.92329 62.5922 8.89814 62.6932 8.87899C63.3992 9.44924 64.1747 10.0073 64.8027 10.6609C66.364 12.2858 67.4619 14.5597 67.5763 16.8156C67.6691 18.6463 66.9756 20.7813 65.8055 22.1964C64.7227 23.5216 63.1524 24.3633 61.4423 24.5353C60.4077 24.6317 58.9611 24.4006 57.9646 24.1273C55.9593 23.5772 54.4909 21.6581 52.8927 20.3305C49.3034 17.3041 45.1517 15.005 40.672 13.5632C39.6954 13.244 38.7065 12.9631 37.7076 12.7211C36.7442 12.4946 35.7771 12.3375 34.8592 11.978Z" fill="#38AA35"/>
</g>
<defs>
<clipPath id="clip0_89_39">
<rect width="76" height="74" fill="white"/>
</clipPath>
</defs>
</svg>
